<?xml version="1.0" encoding="UTF-8" standalone="no"?>
<svg version="1.1" xmlns="http://www.w3.org/2000/svg" xmlns:xlink="http://www.w3.org/1999/xlink" width="266" height="134">
	<g id="dp_dp001" transform="matrix(1,0,0,1,0.199568,43.832)">
		<path id="dp_path002" fill="#222222" d="M 3.148,42.9293 L 3.148,12.1987 L 7.22667,12.1987 L 7.22667,27.3853 L 22.4627,12.1987 L 27.976,12.1987 L 15.0973,24.656 L 28.548,42.9293 L 23.1813,42.9293 L 12.2453,27.4133 L 7.22667,32.268 L 7.22667,42.9293 Z "/>
		<path id="dp_path003" fill="#222222" d="M 46.6733,40.1387 C 45.2773,41.3413 43.9293,42.192 42.6347,42.6867 C 41.336,43.1827 39.944,43.4307 38.4587,43.4307 C 36.0053,43.4307 34.12,42.8333 32.8027,41.6373 C 31.4827,40.4427 30.8253,38.916 30.8253,37.0587 C 30.8253,35.968 31.076,34.9733 31.572,34.072 C 32.0693,33.1707 32.7213,32.448 33.5253,31.9 C 34.3347,31.356 35.24,30.9453 36.252,30.6653 C 36.992,30.4693 38.116,30.28 39.6147,30.0973 C 42.6693,29.736 44.92,29.3027 46.3653,28.7987 C 46.38,28.28 46.3867,27.9467 46.3867,27.808 C 46.3867,26.2627 46.0293,25.1707 45.3133,24.5413 C 44.344,23.6827 42.9027,23.2533 40.992,23.2533 C 39.2067,23.2533 37.8907,23.564 37.0387,24.1907 C 36.1907,24.8173 35.5613,25.9227 35.1533,27.5107 L 31.4693,27.0093 C 31.8053,25.428 32.36,24.1507 33.1293,23.1747 C 33.9013,22.2013 35.0147,21.4533 36.4733,20.928 C 37.9293,20.4027 39.6187,20.1413 41.54,20.1413 C 43.4467,20.1413 44.9947,20.3667 46.1867,20.8133 C 47.3747,21.2613 48.2507,21.8227 48.812,22.5027 C 49.3747,23.1813 49.764,24.0373 49.9893,25.0747 C 50.1147,25.7187 50.1787,26.8773 50.1787,28.5547 L 50.1787,33.5853 C 50.1787,37.0947 50.2573,39.312 50.412,40.2467 C 50.5653,41.18 50.8693,42.0747 51.324,42.9293 L 47.388,42.9293 C 47.016,42.1347 46.78,41.2053 46.6733,40.1387 Z M 46.3507,31.768 C 44.9813,32.3253 42.92,32.7987 40.18,33.188 C 38.624,33.4093 37.5253,33.664 36.8813,33.9387 C 36.2373,34.2187 35.744,34.6267 35.3933,35.1627 C 35.0427,35.6987 34.868,36.2973 34.868,36.952 C 34.868,37.9533 35.2507,38.7907 36.012,39.4587 C 36.7773,40.128 37.8933,40.4613 39.368,40.4613 C 40.824,40.4613 42.1187,40.1427 43.256,39.5093 C 44.3907,38.872 45.224,38.0027 45.7573,36.9053 C 46.1613,36.0573 46.3653,34.8013 46.3653,33.1453 Z "/>
		<path id="dp_path004" fill="#222222" d="M 56.24,42.9293 L 56.24,20.6413 L 59.6027,20.6413 L 59.6027,23.808 C 61.2373,21.364 63.6013,20.1413 66.6933,20.1413 C 68.0347,20.1413 69.268,20.3813 70.396,20.864 C 71.5187,21.3467 72.3627,21.98 72.9213,22.7627 C 73.4787,23.5467 73.8733,24.4773 74.0947,25.5533 C 74.2347,26.2547 74.3053,27.4787 74.3053,29.228 L 74.3053,42.9293 L 70.5493,42.9293 L 70.5493,29.36 C 70.5493,27.8213 70.4027,26.6693 70.1093,25.908 C 69.816,25.1427 69.2933,24.5347 68.5453,24.08 C 67.7987,23.6253 66.9187,23.396 65.9133,23.396 C 64.3027,23.396 62.9147,23.908 61.7493,24.9307 C 60.5787,25.9507 59.996,27.8893 59.996,30.748 L 59.996,42.9293 Z "/>
		<path id="dp_path005" fill="#222222" d="M 83.22,42.9293 L 83.22,12.1987 L 94.7293,12.1987 C 97.072,12.1987 98.9533,12.5107 100.371,13.1333 C 101.784,13.7547 102.892,14.7107 103.697,16.0053 C 104.499,17.2973 104.9,18.6493 104.9,20.0587 C 104.9,21.3747 104.541,22.6133 103.829,23.772 C 103.117,24.9307 102.041,25.868 100.6,26.58 C 102.463,27.124 103.897,28.0547 104.9,29.3667 C 105.901,30.68 106.401,32.2333 106.401,34.0213 C 106.401,35.46 106.097,36.7973 105.489,38.036 C 104.885,39.2733 104.133,40.2253 103.24,40.8973 C 102.345,41.5667 101.225,42.0747 99.88,42.4147 C 98.532,42.7573 96.8827,42.9293 94.9253,42.9293 Z M 87.2987,25.1133 L 93.9173,25.1133 C 95.712,25.1133 97,24.996 97.78,24.756 C 98.8107,24.448 99.5867,23.9373 100.109,23.2253 C 100.632,22.5093 100.893,21.6147 100.893,20.5347 C 100.893,19.5147 100.649,18.6133 100.163,17.8373 C 99.676,17.0613 98.9787,16.532 98.0733,16.2413 C 97.168,15.956 95.616,15.812 93.416,15.812 L 87.2987,15.812 Z M 87.2987,39.316 L 94.9467,39.316 C 96.26,39.316 97.18,39.2667 97.712,39.1693 C 98.6467,39.0013 99.4293,38.7227 100.059,38.3293 C 100.685,37.9347 101.204,37.3667 101.608,36.6147 C 102.012,35.868 102.216,35.0013 102.216,34.0213 C 102.216,32.8733 101.916,31.8747 101.315,31.0267 C 100.713,30.1787 99.8947,29.5853 98.8573,29.2427 C 97.82,28.8987 96.328,28.7267 94.3787,28.7267 L 87.2987,28.7267 Z "/>
		<path id="dp_path006" fill="#222222" d="M 109.655,31.7853 C 109.655,27.6613 110.8,24.6027 113.085,22.616 C 114.996,20.968 117.328,20.1413 120.076,20.1413 C 123.131,20.1413 125.628,21.1467 127.567,23.1533 C 129.507,25.16 130.476,27.9333 130.476,31.4707 C 130.476,34.34 130.047,36.5933 129.188,38.236 C 128.329,39.8813 127.081,41.1587 125.443,42.0667 C 123.804,42.976 122.015,43.4307 120.076,43.4307 C 116.964,43.4307 114.449,42.428 112.531,40.4293 C 110.613,38.4293 109.655,35.5493 109.655,31.7853 Z M 113.519,31.7747 C 113.519,34.6293 114.141,36.7653 115.383,38.1853 C 116.628,39.6053 118.191,40.3173 120.076,40.3173 C 121.947,40.3173 123.503,39.6053 124.748,38.1787 C 125.989,36.7507 126.612,34.572 126.612,31.6493 C 126.612,28.892 125.987,26.8053 124.737,25.3853 C 123.485,23.9653 121.933,23.2533 120.076,23.2533 C 118.191,23.2533 116.628,23.9613 115.383,25.3747 C 114.141,26.788 113.519,28.92 113.519,31.7747 Z "/>
		<path id="dp_path007" fill="#222222" d="M 151.669,40.1387 C 150.273,41.3413 148.925,42.192 147.631,42.6867 C 146.332,43.1827 144.94,43.4307 143.455,43.4307 C 141.001,43.4307 139.116,42.8333 137.799,41.6373 C 136.479,40.4427 135.821,38.916 135.821,37.0587 C 135.821,35.968 136.072,34.9733 136.568,34.072 C 137.065,33.1707 137.717,32.448 138.521,31.9 C 139.331,31.356 140.236,30.9453 141.248,30.6653 C 141.988,30.4693 143.112,30.28 144.611,30.0973 C 147.665,29.736 149.916,29.3027 151.361,28.7987 C 151.376,28.28 151.383,27.9467 151.383,27.808 C 151.383,26.2627 151.025,25.1707 150.309,24.5413 C 149.34,23.6827 147.899,23.2533 145.988,23.2533 C 144.203,23.2533 142.887,23.564 142.035,24.1907 C 141.187,24.8173 140.557,25.9227 140.149,27.5107 L 136.465,27.0093 C 136.801,25.428 137.356,24.1507 138.125,23.1747 C 138.897,22.2013 140.011,21.4533 141.469,20.928 C 142.925,20.4027 144.615,20.1413 146.536,20.1413 C 148.443,20.1413 149.991,20.3667 151.183,20.8133 C 152.371,21.2613 153.247,21.8227 153.808,22.5027 C 154.371,23.1813 154.76,24.0373 154.985,25.0747 C 155.111,25.7187 155.175,26.8773 155.175,28.5547 L 155.175,33.5853 C 155.175,37.0947 155.253,39.312 155.408,40.2467 C 155.561,41.18 155.865,42.0747 156.32,42.9293 L 152.384,42.9293 C 152.012,42.1347 151.776,41.2053 151.669,40.1387 Z M 151.347,31.768 C 149.977,32.3253 147.916,32.7987 145.176,33.188 C 143.62,33.4093 142.521,33.664 141.877,33.9387 C 141.233,34.2187 140.74,34.6267 140.389,35.1627 C 140.039,35.6987 139.864,36.2973 139.864,36.952 C 139.864,37.9533 140.247,38.7907 141.008,39.4587 C 141.773,40.128 142.889,40.4613 144.364,40.4613 C 145.82,40.4613 147.115,40.1427 148.252,39.5093 C 149.387,38.872 150.22,38.0027 150.753,36.9053 C 151.157,36.0573 151.361,34.8013 151.361,33.1453 Z "/>
		<path id="dp_path008" fill="#222222" d="M 161.133,42.9293 L 161.133,20.6413 L 164.496,20.6413 L 164.496,24.0187 C 165.365,22.4413 166.167,21.4 166.904,20.896 C 167.64,20.392 168.449,20.1413 169.332,20.1413 C 170.609,20.1413 171.908,20.5453 173.225,21.3533 L 171.916,24.8453 C 170.992,24.3093 170.069,24.04 169.147,24.04 C 168.324,24.04 167.583,24.2867 166.925,24.784 C 166.271,25.2813 165.801,25.972 165.519,26.852 C 165.1,28.1973 164.889,29.664 164.889,31.26 L 164.889,42.9293 Z "/>
		<path id="dp_path009" fill="#222222" d="M 191.896,42.9293 L 191.896,40.1067 C 190.484,42.3213 188.408,43.4307 185.668,43.4307 C 183.893,43.4307 182.259,42.94 180.771,41.96 C 179.283,40.9827 178.131,39.616 177.312,37.86 C 176.492,36.104 176.084,34.0853 176.084,31.8067 C 176.084,29.5813 176.456,27.564 177.197,25.7547 C 177.937,23.944 179.051,22.552 180.531,21.5893 C 182.012,20.624 183.668,20.1413 185.5,20.1413 C 186.845,20.1413 188.04,20.424 189.088,20.9853 C 190.136,21.5507 190.988,22.284 191.647,23.1893 L 191.647,12.1987 L 195.403,12.1987 L 195.403,42.9293 Z M 179.948,31.796 C 179.948,34.6507 180.552,36.7827 181.761,38.196 C 182.967,39.6093 184.395,40.3173 186.04,40.3173 C 187.697,40.3173 189.107,39.6413 190.265,38.2933 C 191.424,36.9413 192.004,34.88 192.004,32.1107 C 192.004,29.06 191.413,26.82 190.233,25.3933 C 189.052,23.9653 187.6,23.2533 185.868,23.2533 C 184.184,23.2533 182.775,23.94 181.644,25.3107 C 180.513,26.68 179.948,28.8453 179.948,31.796 Z "/>
		<path id="dp_path010" fill="#a8a8a8" d="M 4.28667,82.9293 L 4.28667,69.1573 L 9.47733,69.1573 C 10.3907,69.1573 11.088,69.2 11.5693,69.288 C 12.2467,69.4 12.812,69.6147 13.2693,69.9307 C 13.7253,70.2467 14.0933,70.6893 14.372,71.2587 C 14.6493,71.8267 14.7893,72.4533 14.7893,73.1347 C 14.7893,74.304 14.4173,75.292 13.6733,76.1027 C 12.9293,76.912 11.5853,77.3173 9.64,77.3173 L 6.11467,77.3173 L 6.11467,82.9293 Z M 6.11467,75.6987 L 9.66933,75.6987 C 10.8427,75.6987 11.6787,75.4787 12.172,75.0413 C 12.6667,74.6027 12.9133,73.9853 12.9133,73.1907 C 12.9133,72.6133 12.7667,72.1213 12.4773,71.7107 C 12.1867,71.3 11.804,71.0293 11.3293,70.8973 C 11.0227,70.816 10.4573,70.776 9.63067,70.776 L 6.11467,70.776 Z "/>
		<path id="dp_path011" fill="#a8a8a8" d="M 17.7293,82.9293 L 17.7293,69.1573 L 23.8413,69.1573 C 25.068,69.1573 26.0013,69.28 26.6413,69.5293 C 27.2787,69.776 27.7893,70.2133 28.172,70.8413 C 28.5533,71.4693 28.7453,72.1613 28.7453,72.9213 C 28.7453,73.9 28.4293,74.7253 27.796,75.3973 C 27.164,76.0667 26.1853,76.4947 24.864,76.676 C 25.3467,76.9067 25.7147,77.1347 25.964,77.3613 C 26.4973,77.848 27,78.4573 27.4747,79.1893 L 29.8587,82.9293 L 27.5787,82.9293 L 25.7573,80.0707 C 25.2253,79.2453 24.7867,78.6133 24.4427,78.1773 C 24.0987,77.74 23.7893,77.432 23.5173,77.2547 C 23.2453,77.0787 22.968,76.9547 22.6853,76.8867 C 22.4787,76.8427 22.14,76.82 21.6707,76.82 L 19.5573,76.82 L 19.5573,82.9293 Z M 19.5573,75.2493 L 23.4747,75.2493 C 24.308,75.2493 24.9587,75.1627 25.4293,74.9893 C 25.9,74.8187 26.2573,74.5413 26.5013,74.1613 C 26.7467,73.7813 26.8693,73.368 26.8693,72.9227 C 26.8693,72.2693 26.632,71.732 26.1587,71.312 C 25.6853,70.8893 24.9387,70.68 23.9173,70.68 L 19.5573,70.68 Z "/>
		<path id="dp_path012" fill="#a8a8a8" d="M 31.0547,76.2173 C 31.0547,73.9347 31.6693,72.1467 32.896,70.8547 C 34.1227,69.5627 35.7067,68.916 37.6467,68.916 C 38.916,68.916 40.0627,69.2187 41.0827,69.8267 C 42.1027,70.4333 42.88,71.28 43.416,72.3653 C 43.9507,73.4507 44.2187,74.6813 44.2187,76.0587 C 44.2187,77.4533 43.936,78.7013 43.3733,79.8027 C 42.8107,80.904 42.012,81.7387 40.98,82.304 C 39.948,82.8707 38.8333,83.1533 37.6373,83.1533 C 36.3413,83.1533 35.184,82.8413 34.1627,82.216 C 33.1427,81.5893 32.3693,80.736 31.844,79.6533 C 31.3187,78.5693 31.0547,77.4253 31.0547,76.2173 Z M 32.9307,76.2493 C 32.9307,77.908 33.3773,79.2133 34.2693,80.1667 C 35.1613,81.1213 36.2827,81.5987 37.6267,81.5987 C 38.9987,81.5987 40.1267,81.1173 41.0133,80.1533 C 41.9,79.1907 42.3427,77.8227 42.3427,76.052 C 42.3427,74.932 42.1533,73.956 41.7747,73.12 C 41.3947,72.2853 40.8427,71.6373 40.112,71.1773 C 39.3827,70.7173 38.564,70.488 37.656,70.488 C 36.3653,70.488 35.256,70.9293 34.3267,71.8147 C 33.396,72.7 32.9307,74.1787 32.9307,76.2493 Z "/>
		<path id="dp_path013" fill="#a8a8a8" d="M 46.668,79.0173 L 48.3187,78.7933 C 48.3627,79.844 48.56,80.564 48.9093,80.952 C 49.2573,81.34 49.7413,81.5347 50.3587,81.5347 C 50.8147,81.5347 51.2067,81.4307 51.5373,81.22 C 51.868,81.0107 52.0947,80.7253 52.22,80.3653 C 52.3453,80.0053 52.408,79.4307 52.408,78.6427 L 52.408,69.1573 L 54.236,69.1573 L 54.236,78.5347 C 54.236,79.6853 54.096,80.5787 53.8173,81.2107 C 53.54,81.8427 53.0973,82.3253 52.4947,82.6573 C 51.8893,82.988 51.1813,83.1533 50.3667,83.1533 C 49.16,83.1533 48.2347,82.808 47.5933,82.1133 C 46.952,81.4187 46.6427,80.3867 46.668,79.0173 Z "/>
		<path id="dp_path014" fill="#a8a8a8" d="M 60.008,82.9293 L 60.008,69.1573 L 69.9653,69.1573 L 69.9653,70.776 L 61.836,70.776 L 61.836,74.9933 L 69.452,74.9933 L 69.452,76.612 L 61.836,76.612 L 61.836,81.3093 L 70.2853,81.3093 L 70.2853,82.9293 Z "/>
		<path id="dp_path015" fill="#a8a8a8" d="M 83.032,78.0933 L 84.8587,78.5533 C 84.4773,80.0493 83.7893,81.1893 82.796,81.976 C 81.8013,82.7613 80.588,83.1533 79.152,83.1533 C 77.6667,83.1533 76.4573,82.852 75.528,82.248 C 74.596,81.644 73.888,80.768 73.4013,79.6227 C 72.916,78.4773 72.6733,77.2467 72.6733,75.932 C 72.6733,74.4973 72.948,73.2467 73.496,72.1787 C 74.0453,71.1133 74.824,70.3013 75.836,69.7467 C 76.8493,69.1933 77.9613,68.916 79.1773,68.916 C 80.556,68.916 81.7147,69.2667 82.6547,69.968 C 83.5947,70.668 84.248,71.6547 84.6187,72.924 L 82.8227,73.348 C 82.504,72.344 82.0387,71.6147 81.432,71.1573 C 80.824,70.7013 80.0587,70.472 79.1373,70.472 C 78.0787,70.472 77.1933,70.7253 76.4813,71.2333 C 75.7707,71.74 75.272,72.4213 74.9827,73.2773 C 74.6947,74.132 74.5493,75.0133 74.5493,75.9227 C 74.5493,77.0933 74.7213,78.116 75.0627,78.9893 C 75.404,79.8653 75.9347,80.5173 76.6573,80.9507 C 77.376,81.3827 78.1573,81.5987 78.9973,81.5987 C 80.0187,81.5987 80.8853,81.304 81.5933,80.7147 C 82.3027,80.1267 82.7813,79.2533 83.032,78.0933 Z "/>
		<path id="dp_path016" fill="#a8a8a8" d="M 92.0693,82.9293 L 92.0693,70.776 L 87.532,70.776 L 87.532,69.1573 L 98.4347,69.1573 L 98.4347,70.776 L 93.8973,70.776 L 93.8973,82.9293 Z "/>
		<path id="dp_path017" fill="#a8a8a8" d="M 108.261,82.9293 L 108.261,69.1573 L 111.008,69.1573 L 114.267,78.908 C 114.568,79.816 114.785,80.496 114.924,80.9467 C 115.08,80.4453 115.325,79.7093 115.657,78.74 L 118.964,69.1573 L 121.425,69.1573 L 121.425,82.9293 L 119.661,82.9293 L 119.661,71.4013 L 115.645,82.9293 L 114.001,82.9293 L 110.025,71.2093 L 110.025,82.9293 Z "/>
		<path id="dp_path018" fill="#a8a8a8" d="M 125.416,82.9293 L 130.692,69.1573 L 132.688,69.1573 L 138.292,82.9293 L 136.216,82.9293 L 134.636,78.7613 L 128.848,78.7613 L 127.349,82.9293 Z M 129.384,77.2693 L 134.048,77.2693 L 132.62,73.46 C 132.188,72.2973 131.861,71.3387 131.639,70.584 C 131.452,71.4747 131.204,72.3587 130.889,73.2307 Z "/>
		<path id="dp_path019" fill="#a8a8a8" d="M 141.06,82.9293 L 141.06,69.1573 L 142.929,69.1573 L 150.183,79.9747 L 150.183,69.1573 L 151.931,69.1573 L 151.931,82.9293 L 150.061,82.9293 L 142.808,72.112 L 142.808,82.9293 Z "/>
		<path id="dp_path020" fill="#a8a8a8" d="M 155.347,82.9293 L 160.623,69.1573 L 162.619,69.1573 L 168.223,82.9293 L 166.147,82.9293 L 164.567,78.7613 L 158.779,78.7613 L 157.28,82.9293 Z M 159.315,77.2693 L 163.979,77.2693 L 162.551,73.46 C 162.119,72.2973 161.792,71.3387 161.569,70.584 C 161.383,71.4747 161.135,72.3587 160.82,73.2307 Z "/>
		<path id="dp_path021" fill="#a8a8a8" d="M 177.452,77.5267 L 177.452,75.9067 L 183.288,75.9067 L 183.288,81.0067 C 182.393,81.7187 181.471,82.256 180.52,82.6147 C 179.567,82.9747 178.591,83.1533 177.591,83.1533 C 176.239,83.1533 175.009,82.864 173.904,82.2853 C 172.8,81.7053 171.965,80.8693 171.403,79.772 C 170.84,78.6773 170.559,77.452 170.559,76.1013 C 170.559,74.76 170.839,73.5093 171.399,72.3493 C 171.957,71.188 172.764,70.3253 173.816,69.7613 C 174.868,69.1987 176.079,68.916 177.449,68.916 C 178.445,68.916 179.344,69.0787 180.148,69.4 C 180.952,69.7227 181.583,70.1733 182.04,70.7493 C 182.496,71.3267 182.844,72.0773 183.081,73.0053 L 181.443,73.4573 C 181.236,72.7533 180.98,72.2013 180.673,71.7987 C 180.365,71.3987 179.928,71.076 179.357,70.8333 C 178.788,70.592 178.155,70.472 177.46,70.472 C 176.627,70.472 175.907,70.5987 175.299,70.8533 C 174.692,71.1067 174.203,71.4413 173.829,71.8547 C 173.457,72.2707 173.167,72.724 172.96,73.2213 C 172.609,74.0747 172.435,75.0013 172.435,75.9987 C 172.435,77.228 172.645,78.2573 173.068,79.0867 C 173.491,79.9147 174.107,80.5307 174.915,80.932 C 175.723,81.3347 176.58,81.5347 177.488,81.5347 C 178.276,81.5347 179.048,81.3827 179.8,81.0773 C 180.551,80.7707 181.121,80.448 181.509,80.1013 L 181.509,77.5267 Z "/>
		<path id="dp_path022" fill="#a8a8a8" d="M 186.637,82.9293 L 186.637,69.1573 L 196.595,69.1573 L 196.595,70.776 L 188.465,70.776 L 188.465,74.9933 L 196.081,74.9933 L 196.081,76.612 L 188.465,76.612 L 188.465,81.3093 L 196.915,81.3093 L 196.915,82.9293 Z "/>
		<path id="dp_path023" fill="#a8a8a8" d="M 199.768,82.9293 L 199.768,69.1573 L 202.515,69.1573 L 205.773,78.908 C 206.075,79.816 206.292,80.496 206.431,80.9467 C 206.587,80.4453 206.832,79.7093 207.164,78.74 L 210.471,69.1573 L 212.932,69.1573 L 212.932,82.9293 L 211.168,82.9293 L 211.168,71.4013 L 207.152,82.9293 L 205.508,82.9293 L 201.532,71.2093 L 201.532,82.9293 Z "/>
		<path id="dp_path024" fill="#a8a8a8" d="M 218.471,82.9293 L 218.471,69.1573 L 228.428,69.1573 L 228.428,70.776 L 220.299,70.776 L 220.299,74.9933 L 227.915,74.9933 L 227.915,76.612 L 220.299,76.612 L 220.299,81.3093 L 228.748,81.3093 L 228.748,82.9293 Z "/>
		<path id="dp_path025" fill="#a8a8a8" d="M 231.633,82.9293 L 231.633,69.1573 L 233.503,69.1573 L 240.756,79.9747 L 240.756,69.1573 L 242.504,69.1573 L 242.504,82.9293 L 240.635,82.9293 L 233.381,72.112 L 233.381,82.9293 Z "/>
		<path id="dp_path026" fill="#a8a8a8" d="M 250.865,82.9293 L 250.865,70.776 L 246.328,70.776 L 246.328,69.1573 L 257.231,69.1573 L 257.231,70.776 L 252.693,70.776 L 252.693,82.9293 Z "/>
	</g>
	<g id="dp_dp027" transform="matrix(1,0,0,1,-155.207,-179.239)">
		<path id="dp_path028" fill="#a7e66e" fill-rule="evenodd" d="M 347.001,179 L 377.997,179 L 377.997,220 L 347.001,220 Z "/>
		<path id="dp_path029" fill="#00c4cc" fill-rule="evenodd" d="M 304.005,200 L 334.993,200 L 334.993,220 L 304.005,220 Z "/>
		<path id="dp_path030" fill="#ffbd4a" fill-rule="evenodd" d="M 388.004,187 L 418.996,187 L 418.996,220 L 388.004,220 Z "/>
	</g>
</svg>